<svg xmlns="http://www.w3.org/2000/svg" viewBox="0 0 359.4 136.37"><defs><style>.bec3bd5e-8c09-4c66-bdc7-ae0a62ca63f7{fill:#ff6f00}</style></defs><g id="f4e96a27-013c-443e-b6c4-26c919aae2f2" data-name="Layer 2"><g id="e0b82e7f-418b-46c4-bff4-fa2c1093cf24" data-name="Layer 1"><g id="aceb0853-ef69-48b2-9f59-e25d39959863" data-name="Page-1"><g id="b84499ea-1393-4260-89ae-43b62056b6f7" data-name="Logo/Logo-completo-padrão"><g id="fa684502-f502-49b9-8965-598a06263f62" data-name="Logo"><circle id="aea9a122-a0bd-4c34-b0af-f68d07897b71" data-name="Circle" class="bec3bd5e-8c09-4c66-bdc7-ae0a62ca63f7" cx="58.9" cy="58.9" r="58.9"/><path id="af9b4e8f-7c49-4b45-9a4b-462ea8333aac" data-name="Fox" d="M65 5.5h1.7c1.1.1 2.3.3 3.4.5a50.64 50.64 0 0124.2 11.9 56.63 56.63 0 0115.5 22 52.08 52.08 0 012.3 30 53.19 53.19 0 01-15.4 28.2 55.45 55.45 0 01-29.6 14.4h-1.9c-.2 0-.4 0-.5-.2s-.2-.3-.2-.5v-2.3a.58.58 0 01.6-.6h.5l.7-.2a52.09 52.09 0 0027.8-13.3 50 50 0 0014.4-26.3 47.56 47.56 0 00-2.2-27.9 53.21 53.21 0 00-14.6-20.4 47.59 47.59 0 00-22.5-11l-4.1-.4a.65.65 0 01-.6-.6V6.4a.68.68 0 01.7-.7zm-11.9.1a.68.68 0 01.7.7v2.3a.58.58 0 01-.6.6l-4.5.6a47.26 47.26 0 00-22.4 11A51.75 51.75 0 0011.6 41a48 48 0 00-2.2 27.8 50 50 0 0014.4 26.3 52.32 52.32 0 0027.9 13.5h1.4a.65.65 0 01.6.6v2.4a.68.68 0 01-.7.7h-.4l-1.3-.1a55.45 55.45 0 01-29.6-14.4A54 54 0 016.2 69.6a52.14 52.14 0 012.3-30A57.34 57.34 0 0124 17.7 52.51 52.51 0 0148.2 5.8c1.1-.2 2.2-.4 3.4-.5h1.5v.3zm37.7 25.8a.92.92 0 011 .1.91.91 0 01.3 1l-6.8 20.3a.64.64 0 000 .6l7.9 21.5a1 1 0 01-.4 1.1L67.2 88.3H67l-7.2 6.3a.91.91 0 01-1.2 0l-7.2-6.3h-.2L25.5 76a.84.84 0 01-.4-1.1l7.8-21.6a.64.64 0 000-.6l-6.8-20.3a1 1 0 01.3-1 .92.92 0 011-.1l22 13.2h19.5zM50.2 71l3.6 14.9 5.2 4.5 5.2-4.5L68 71l-9 8.7zM35.4 56.5l-6.3 17.4 20.5 9.8-4.2-17.3zm47.3.2l-10 9.7-4.3 17.3 20.5-9.9zm-13.6-8.5h-20L38 54.1l21 20.7 21.3-20.6zm17.2-10.1l-13.6 8.1 9.4 5.1zm-54.7 0L36 51.3l9.2-5z" fill="#fff"/><path id="afe97772-fcc5-44f5-a074-c1e8eebcf3a6" data-name="Type" d="M204.6 55.8a23.43 23.43 0 11-28.2-3.6 23.16 23.16 0 0128.2 3.6zm67.8-32.6v32.1a23.67 23.67 0 0115-6.1 22.55 22.55 0 0115.8 6.1l.7.6a23.42 23.42 0 010 33.2 22.72 22.72 0 01-16.5 6.7 24.41 24.41 0 01-14.3-5.5l-.7-.6v5.2H264V23.3l8.4-.1zm54.3 26.9v44.7h-8.4V50.1zm-68.8-.3L240.2 71l19.7 23.8h-11l-14.4-17.2-14.4 17.2h-10.8L229 71l-17.8-21.2h11l12.2 14.6 12.3-14.6zM166 23.2l-2.2 8h-7.5a7 7 0 00-6.6 6.3v12.6h13.7v8h-13.7v36.7h-8.4v-57a14.52 14.52 0 014.4-10.4 14.34 14.34 0 019.7-4.2H166zm177.3 8.5v18.4H357v8h-13.7v21.6a7.16 7.16 0 006.6 7h7.5l2 8h-9.9A14.72 14.72 0 01334.8 80V31.7zm-66.7 30.1a15.11 15.11 0 1025.8 10.7 15.09 15.09 0 00-25.8-10.7zm-94.2-3.2a15 15 0 005 28.9h.7a15 15 0 10-5.7-28.9zm140.1-26.7a5.62 5.62 0 015.5 5.5 5.82 5.82 0 01-3.4 5.6 5.63 5.63 0 01-6.4-1.2 5.75 5.75 0 013.5-9.8h.5z" fill="#3d3f42"/></g></g></g><g style="isolation:isolate"><path class="bec3bd5e-8c09-4c66-bdc7-ae0a62ca63f7" d="M213.89 124.74v4h-15.3V103.5h15.12v4h-11v6.5h10.08v3.93h-10.06v6.8zM229 128.7l-4.47-6.16-4.53 6.16h-4.53l6.77-9.25-6.41-8.75h4.5l4.14 5.69 4.14-5.69h4.53l-6.4 8.79 6.73 9.21zM233.83 119.7a9.29 9.29 0 019.51-9.47 8.89 8.89 0 018 4.65l-3.34 1.94a5 5 0 00-4.71-2.77 5.65 5.65 0 000 11.3 5.28 5.28 0 004.79-2.77l3.34 1.91a9 9 0 01-8.09 4.68 9.31 9.31 0 01-9.5-9.47zM270.62 117.65v11h-3.88v-10.6c0-2.74-1.59-4.18-4-4.18s-4.57 1.51-4.57 5.18v9.65h-3.89v-25.2h3.89v9.5a6.19 6.19 0 015.58-2.78c3.99.01 6.87 2.78 6.87 7.43zM292.94 110.7v18h-3.88v-2.59a7.4 7.4 0 01-6.3 3.06 9.48 9.48 0 010-18.94 7.48 7.48 0 016.3 3v-2.53zm-3.88 9a5.69 5.69 0 10-5.69 5.76 5.56 5.56 0 005.69-5.76zM313.86 117.65v11H310v-10.6c0-2.74-1.58-4.18-4-4.18s-4.57 1.51-4.57 5.18v9.65h-3.89v-18h3.89v2.3a6.19 6.19 0 015.58-2.78c3.99.01 6.85 2.78 6.85 7.43zM336.18 110.7v17.17c0 5.8-4.54 8.5-9.25 8.5-4 0-7-1.48-8.53-4.36l3.34-1.94c.8 1.55 2.13 2.77 5.26 2.77 3.35 0 5.36-1.84 5.36-5v-2.19a7.35 7.35 0 01-6.26 3.13 9.29 9.29 0 010-18.58 7.33 7.33 0 016.26 3.14v-2.64zm-3.82 8.82a5.72 5.72 0 10-5.72 5.65 5.54 5.54 0 005.72-5.65zM349.53 125.6a5.51 5.51 0 004.65-2.23l3.2 1.88a9.09 9.09 0 01-7.88 3.92c-5.94 0-9.79-4.07-9.79-9.47a9.18 9.18 0 019.5-9.47c5.36 0 9 4.32 9 9.51a12.2 12.2 0 01-.14 1.62h-14.29c.61 2.81 2.88 4.24 5.75 4.24zm4.79-7.41a5 5 0 00-5.15-4.43 5.23 5.23 0 00-5.43 4.43z"/></g></g></g></svg>
